# xmcd
#
# Track frame offsets: 
#        150
#        14055
#        27800
#        42222
#        58258
#        77895
#        97854
#        114389
#        126112
#        143127
#        157692
#        171988
#        188937
#        202955
#        215965
#        233329
#        250708
#        269477
#        284198
#        299874
#
# Disc length: 4366 seconds
#
# Revision: 0
# Processed by: cddbd v1.5.2PL0 Copyright (c) Steve Scherf et al.
# Submitted via: ExactAudioCopy v1.1
#
DISCID=2e110c14
DTITLE=Christoff - Duetten
DYEAR=2018
DGENRE=Chanson
TTITLE0=Christoff and Gerard Joling - Vanavond Gaat Het Gebeuren
TTITLE1=Christoff and Jo Vally - Sierre Madre Del Sud
TTITLE2=Christoff and André Hazes - Zeg Maar Niets Meer
TTITLE3=Christoff and Dana Winner - Mijn Avontuur
TTITLE4=Christoff and Rob De Nijs - Malle Babbe
TTITLE5=Christoff and Belle Perez - Ik Hoor Bij Jou (El Ritmo De La Pass
TTITLE5=ion)
TTITLE6=Christoff and René Froger - Alles Kan Een Mens Gelukkig Maken
TTITLE7=Christoff and Luc Steeno - Je Moedertje
TTITLE8=Christoff and Florian Silbereisen - Omdat Ie Zo Mooi Is
TTITLE9=Christoff and De Romeo's - Een Laatste Nacht
TTITLE10=Christoff Feat. Scala and Kolacny Brothers - Een Ster
TTITLE11=Christoff and Lindsay - We Nemen Elkaar Zoals We Zijn
TTITLE12=Christoff and Willeke Alberti - Niemand Laat Zijn Eigen Kind Al
TTITLE12=leen
TTITLE13=Christoff and Robby Longo - C'Est La Vie (You Never Can Tell)
TTITLE14=Christoff and Corry Konings - Wie Kan Zonder Liefde Leven
TTITLE15=Christoff and Andrei Lugovski - Een Verloren Hart (Perdere L'Am
TTITLE15=ore)
TTITLE16=Christoff and Kathleen - Mijn Engel Hou Me Vast
TTITLE17=Christoff and Gerrie Pretorius - Somerliefde
TTITLE18=Christoff and Semino Rossi - Ich Wünsche Mir Frieden
TTITLE19=Christoff and Will Tura - Tura Medley (Live)
EXTD=
EXTT0=
EXTT1=
EXTT2=
EXTT3=
EXTT4=
EXTT5=
EXTT6=
EXTT7=
EXTT8=
EXTT9=
EXTT10=
EXTT11=
EXTT12=
EXTT13=
EXTT14=
EXTT15=
EXTT16=
EXTT17=
EXTT18=
EXTT19=
PLAYORDER=
